<mxfile host="Electron" agent="Mozilla/5.0 (Windows NT 10.0; Win64; x64) AppleWebKit/537.36 (KHTML, like Gecko) draw.io/25.0.2 Chrome/128.0.6613.186 Electron/32.2.5 Safari/537.36" version="25.0.2">
  <diagram name="Страница — 1" id="Td8Fgm3Z-LBcwyla4mZC">
    <mxGraphModel dx="1194" dy="814" grid="1" gridSize="10" guides="1" tooltips="1" connect="1" arrows="1" fold="1" page="1" pageScale="1" pageWidth="827" pageHeight="1169" math="0" shadow="0">
      <root>
        <mxCell id="0" />
        <mxCell id="1" parent="0" />
        <mxCell id="fMJvek8NVyRL-xTnjcHt-1" style="edgeStyle=orthogonalEdgeStyle;rounded=0;orthogonalLoop=1;jettySize=auto;html=1;" parent="1" source="fMJvek8NVyRL-xTnjcHt-2" target="fMJvek8NVyRL-xTnjcHt-18" edge="1">
          <mxGeometry relative="1" as="geometry">
            <mxPoint x="1230" y="720" as="sourcePoint" />
            <Array as="points" />
          </mxGeometry>
        </mxCell>
        <mxCell id="fMJvek8NVyRL-xTnjcHt-3" value="1" style="text;html=1;align=center;verticalAlign=middle;whiteSpace=wrap;rounded=0;" parent="1" vertex="1">
          <mxGeometry x="900" y="700" width="60" height="30" as="geometry" />
        </mxCell>
        <mxCell id="fMJvek8NVyRL-xTnjcHt-4" value="Координаты поражения" style="text;html=1;align=center;verticalAlign=middle;whiteSpace=wrap;rounded=0;" parent="1" vertex="1">
          <mxGeometry x="200" y="696" width="60" height="30" as="geometry" />
        </mxCell>
        <mxCell id="fMJvek8NVyRL-xTnjcHt-5" value="Вид болезни" style="text;html=1;align=center;verticalAlign=middle;whiteSpace=wrap;rounded=0;" parent="1" vertex="1">
          <mxGeometry x="180" y="516" width="60" height="30" as="geometry" />
        </mxCell>
        <mxCell id="fMJvek8NVyRL-xTnjcHt-6" value="Вид растения" style="text;html=1;align=center;verticalAlign=middle;whiteSpace=wrap;rounded=0;" parent="1" vertex="1">
          <mxGeometry x="180" y="476" width="60" height="30" as="geometry" />
        </mxCell>
        <mxCell id="fMJvek8NVyRL-xTnjcHt-7" style="edgeStyle=orthogonalEdgeStyle;rounded=0;orthogonalLoop=1;jettySize=auto;html=1;jumpStyle=arc;" parent="1" source="fMJvek8NVyRL-xTnjcHt-8" target="fMJvek8NVyRL-xTnjcHt-20" edge="1">
          <mxGeometry relative="1" as="geometry">
            <Array as="points">
              <mxPoint x="350" y="470" />
              <mxPoint x="350" y="470" />
            </Array>
            <mxPoint x="210" y="575" as="targetPoint" />
          </mxGeometry>
        </mxCell>
        <mxCell id="fMJvek8NVyRL-xTnjcHt-8" value="Базы данных парника" style="text;html=1;align=center;verticalAlign=middle;whiteSpace=wrap;rounded=0;" parent="1" vertex="1">
          <mxGeometry x="170" y="444" width="80" height="30" as="geometry" />
        </mxCell>
        <mxCell id="fMJvek8NVyRL-xTnjcHt-9" style="edgeStyle=orthogonalEdgeStyle;rounded=0;orthogonalLoop=1;jettySize=auto;html=1;jumpStyle=arc;" parent="1" source="fMJvek8NVyRL-xTnjcHt-6" target="fMJvek8NVyRL-xTnjcHt-20" edge="1">
          <mxGeometry relative="1" as="geometry">
            <mxPoint x="210" y="615.04" as="targetPoint" />
            <Array as="points">
              <mxPoint x="210" y="490" />
              <mxPoint x="210" y="490" />
            </Array>
          </mxGeometry>
        </mxCell>
        <mxCell id="fMJvek8NVyRL-xTnjcHt-10" style="edgeStyle=orthogonalEdgeStyle;rounded=0;orthogonalLoop=1;jettySize=auto;html=1;jumpStyle=arc;" parent="1" source="fMJvek8NVyRL-xTnjcHt-5" target="fMJvek8NVyRL-xTnjcHt-20" edge="1">
          <mxGeometry relative="1" as="geometry">
            <mxPoint x="211.44000000000005" y="655.04" as="targetPoint" />
            <Array as="points">
              <mxPoint x="320" y="531" />
              <mxPoint x="320" y="530" />
            </Array>
          </mxGeometry>
        </mxCell>
        <mxCell id="fMJvek8NVyRL-xTnjcHt-11" style="edgeStyle=orthogonalEdgeStyle;rounded=0;orthogonalLoop=1;jettySize=auto;html=1;" parent="1" source="fMJvek8NVyRL-xTnjcHt-4" target="fMJvek8NVyRL-xTnjcHt-2" edge="1">
          <mxGeometry relative="1" as="geometry">
            <mxPoint x="210.24" y="620.04" as="targetPoint" />
            <Array as="points">
              <mxPoint x="430" y="720" />
              <mxPoint x="430" y="720" />
            </Array>
          </mxGeometry>
        </mxCell>
        <mxCell id="fMJvek8NVyRL-xTnjcHt-12" style="edgeStyle=orthogonalEdgeStyle;rounded=0;orthogonalLoop=1;jettySize=auto;html=1;jumpStyle=arc;" parent="1" source="fMJvek8NVyRL-xTnjcHt-13" target="fMJvek8NVyRL-xTnjcHt-26" edge="1">
          <mxGeometry relative="1" as="geometry">
            <mxPoint x="650" y="670" as="targetPoint" />
            <Array as="points">
              <mxPoint x="660" y="690" />
              <mxPoint x="660" y="690" />
            </Array>
          </mxGeometry>
        </mxCell>
        <mxCell id="fMJvek8NVyRL-xTnjcHt-13" value="Оператор" style="text;html=1;align=center;verticalAlign=middle;whiteSpace=wrap;rounded=0;" parent="1" vertex="1">
          <mxGeometry x="630" y="900" width="60" height="30" as="geometry" />
        </mxCell>
        <mxCell id="fMJvek8NVyRL-xTnjcHt-14" style="edgeStyle=orthogonalEdgeStyle;rounded=0;orthogonalLoop=1;jettySize=auto;html=1;" parent="1" source="fMJvek8NVyRL-xTnjcHt-15" target="fMJvek8NVyRL-xTnjcHt-2" edge="1">
          <mxGeometry relative="1" as="geometry">
            <mxPoint x="420" y="410" as="targetPoint" />
            <Array as="points">
              <mxPoint x="470" y="410" />
              <mxPoint x="880" y="410" />
            </Array>
          </mxGeometry>
        </mxCell>
        <mxCell id="fMJvek8NVyRL-xTnjcHt-22" style="edgeStyle=orthogonalEdgeStyle;rounded=0;orthogonalLoop=1;jettySize=auto;html=1;jumpStyle=arc;" parent="1" source="fMJvek8NVyRL-xTnjcHt-15" target="fMJvek8NVyRL-xTnjcHt-20" edge="1">
          <mxGeometry relative="1" as="geometry">
            <Array as="points">
              <mxPoint x="470" y="350" />
              <mxPoint x="470" y="350" />
            </Array>
          </mxGeometry>
        </mxCell>
        <mxCell id="fMJvek8NVyRL-xTnjcHt-15" value="&lt;font style=&quot;font-size: 10px;&quot;&gt;Методология по лечению сельскохозяйственных культур&lt;/font&gt;" style="text;html=1;align=center;verticalAlign=middle;whiteSpace=wrap;rounded=0;" parent="1" vertex="1">
          <mxGeometry x="414" y="260" width="120" height="60" as="geometry" />
        </mxCell>
        <mxCell id="fMJvek8NVyRL-xTnjcHt-16" value="&lt;font style=&quot;font-size: 10px;&quot;&gt;Руководства по применению лекарственных препаратов&lt;/font&gt;" style="text;html=1;align=center;verticalAlign=middle;whiteSpace=wrap;rounded=0;" parent="1" vertex="1">
          <mxGeometry x="605" y="260" width="90" height="60" as="geometry" />
        </mxCell>
        <mxCell id="fMJvek8NVyRL-xTnjcHt-17" style="edgeStyle=orthogonalEdgeStyle;rounded=0;orthogonalLoop=1;jettySize=auto;html=1;jumpStyle=arc;jumpSize=14;" parent="1" source="fMJvek8NVyRL-xTnjcHt-16" target="fMJvek8NVyRL-xTnjcHt-26" edge="1">
          <mxGeometry relative="1" as="geometry">
            <mxPoint x="650" y="420" as="targetPoint" />
            <Array as="points" />
          </mxGeometry>
        </mxCell>
        <mxCell id="fMJvek8NVyRL-xTnjcHt-18" value="&lt;font style=&quot;font-size: 11px;&quot;&gt;Инструкции к лечению растения&lt;/font&gt;" style="text;html=1;align=center;verticalAlign=middle;resizable=0;points=[];autosize=1;strokeColor=none;fillColor=none;" parent="1" vertex="1">
          <mxGeometry x="1040" y="680" width="190" height="30" as="geometry" />
        </mxCell>
        <mxCell id="fMJvek8NVyRL-xTnjcHt-28" style="edgeStyle=orthogonalEdgeStyle;rounded=0;orthogonalLoop=1;jettySize=auto;html=1;" parent="1" source="fMJvek8NVyRL-xTnjcHt-20" target="fMJvek8NVyRL-xTnjcHt-26" edge="1">
          <mxGeometry relative="1" as="geometry" />
        </mxCell>
        <mxCell id="fMJvek8NVyRL-xTnjcHt-20" value="Подобрать список лекарственных препаратов" style="rounded=0;whiteSpace=wrap;html=1;" parent="1" vertex="1">
          <mxGeometry x="400" y="458" width="140" height="80" as="geometry" />
        </mxCell>
        <mxCell id="fMJvek8NVyRL-xTnjcHt-19" value="1" style="text;html=1;align=center;verticalAlign=middle;whiteSpace=wrap;rounded=0;" parent="1" vertex="1">
          <mxGeometry x="490" y="513" width="60" height="30" as="geometry" />
        </mxCell>
        <mxCell id="fMJvek8NVyRL-xTnjcHt-23" style="edgeStyle=orthogonalEdgeStyle;rounded=0;orthogonalLoop=1;jettySize=auto;html=1;jumpStyle=arc;" parent="1" source="fMJvek8NVyRL-xTnjcHt-24" target="fMJvek8NVyRL-xTnjcHt-2" edge="1">
          <mxGeometry relative="1" as="geometry">
            <mxPoint x="510" y="680" as="targetPoint" />
            <Array as="points">
              <mxPoint x="470" y="860" />
              <mxPoint x="880" y="860" />
            </Array>
          </mxGeometry>
        </mxCell>
        <mxCell id="fMJvek8NVyRL-xTnjcHt-25" style="edgeStyle=orthogonalEdgeStyle;rounded=0;orthogonalLoop=1;jettySize=auto;html=1;jumpStyle=arc;" parent="1" source="fMJvek8NVyRL-xTnjcHt-24" target="fMJvek8NVyRL-xTnjcHt-20" edge="1">
          <mxGeometry relative="1" as="geometry">
            <Array as="points">
              <mxPoint x="470" y="820" />
              <mxPoint x="470" y="820" />
            </Array>
          </mxGeometry>
        </mxCell>
        <mxCell id="fMJvek8NVyRL-xTnjcHt-37" style="edgeStyle=orthogonalEdgeStyle;rounded=0;orthogonalLoop=1;jettySize=auto;html=1;jumpStyle=arc;" parent="1" source="fMJvek8NVyRL-xTnjcHt-24" target="fMJvek8NVyRL-xTnjcHt-26" edge="1">
          <mxGeometry relative="1" as="geometry">
            <Array as="points">
              <mxPoint x="470" y="860" />
              <mxPoint x="620" y="860" />
            </Array>
          </mxGeometry>
        </mxCell>
        <mxCell id="fMJvek8NVyRL-xTnjcHt-24" value="Программа" style="text;html=1;align=center;verticalAlign=middle;whiteSpace=wrap;rounded=0;" parent="1" vertex="1">
          <mxGeometry x="450" y="900" width="60" height="30" as="geometry" />
        </mxCell>
        <mxCell id="fMJvek8NVyRL-xTnjcHt-26" value="Определить препарат" style="rounded=0;whiteSpace=wrap;html=1;" parent="1" vertex="1">
          <mxGeometry x="580" y="503" width="140" height="80" as="geometry" />
        </mxCell>
        <mxCell id="fMJvek8NVyRL-xTnjcHt-27" value="2" style="text;html=1;align=center;verticalAlign=middle;whiteSpace=wrap;rounded=0;" parent="1" vertex="1">
          <mxGeometry x="671" y="555" width="60" height="30" as="geometry" />
        </mxCell>
        <mxCell id="fMJvek8NVyRL-xTnjcHt-29" value="Список применимых лекарств" style="text;html=1;align=center;verticalAlign=middle;whiteSpace=wrap;rounded=0;" parent="1" vertex="1">
          <mxGeometry x="550" y="418" width="60" height="50" as="geometry" />
        </mxCell>
        <mxCell id="fMJvek8NVyRL-xTnjcHt-30" value="" style="endArrow=none;html=1;rounded=0;" parent="1" source="fMJvek8NVyRL-xTnjcHt-29" edge="1">
          <mxGeometry width="50" height="50" relative="1" as="geometry">
            <mxPoint x="560" y="698" as="sourcePoint" />
            <mxPoint x="560" y="508" as="targetPoint" />
          </mxGeometry>
        </mxCell>
        <mxCell id="fMJvek8NVyRL-xTnjcHt-41" value="" style="endArrow=none;html=1;rounded=0;" parent="1" source="v9-r6gw9Wj_gWHFdDW4D-1" edge="1">
          <mxGeometry width="50" height="50" relative="1" as="geometry">
            <mxPoint x="751.4545454545455" y="488" as="sourcePoint" />
            <mxPoint x="740" y="530" as="targetPoint" />
          </mxGeometry>
        </mxCell>
        <mxCell id="kS6EB3ZGWaH5Blnq51BC-1" style="edgeStyle=orthogonalEdgeStyle;rounded=0;orthogonalLoop=1;jettySize=auto;html=1;" parent="1" source="fMJvek8NVyRL-xTnjcHt-26" target="fMJvek8NVyRL-xTnjcHt-2" edge="1">
          <mxGeometry relative="1" as="geometry">
            <Array as="points">
              <mxPoint x="750" y="560" />
              <mxPoint x="750" y="690" />
            </Array>
            <mxPoint x="730" y="600" as="sourcePoint" />
            <mxPoint x="800" y="670" as="targetPoint" />
          </mxGeometry>
        </mxCell>
        <mxCell id="v9-r6gw9Wj_gWHFdDW4D-1" value="Данные о выборе оператора" style="text;html=1;align=center;verticalAlign=middle;whiteSpace=wrap;rounded=0;" parent="1" vertex="1">
          <mxGeometry x="760" y="448" width="60" height="50" as="geometry" />
        </mxCell>
        <mxCell id="v9-r6gw9Wj_gWHFdDW4D-2" value="Данные о препарате" style="text;html=1;align=center;verticalAlign=middle;whiteSpace=wrap;rounded=0;" parent="1" vertex="1">
          <mxGeometry x="671" y="617" width="60" height="50" as="geometry" />
        </mxCell>
        <mxCell id="v9-r6gw9Wj_gWHFdDW4D-3" value="" style="endArrow=none;html=1;rounded=0;" parent="1" source="v9-r6gw9Wj_gWHFdDW4D-2" edge="1">
          <mxGeometry width="50" height="50" relative="1" as="geometry">
            <mxPoint x="761" y="570" as="sourcePoint" />
            <mxPoint x="750" y="660" as="targetPoint" />
          </mxGeometry>
        </mxCell>
        <mxCell id="KjGa1CwcBPG1PeXQLQia-1" value="" style="edgeStyle=orthogonalEdgeStyle;rounded=0;orthogonalLoop=1;jettySize=auto;html=1;" parent="1" source="fMJvek8NVyRL-xTnjcHt-26" target="fMJvek8NVyRL-xTnjcHt-2" edge="1">
          <mxGeometry relative="1" as="geometry">
            <Array as="points">
              <mxPoint x="780" y="530" />
              <mxPoint x="780" y="660" />
            </Array>
            <mxPoint x="720" y="590" as="sourcePoint" />
            <mxPoint x="1160" y="670" as="targetPoint" />
          </mxGeometry>
        </mxCell>
        <mxCell id="fMJvek8NVyRL-xTnjcHt-2" value="Рассчитать область обработки" style="rounded=0;whiteSpace=wrap;html=1;" parent="1" vertex="1">
          <mxGeometry x="810" y="655" width="140" height="80" as="geometry" />
        </mxCell>
        <mxCell id="KjGa1CwcBPG1PeXQLQia-5" value="3" style="text;html=1;align=center;verticalAlign=middle;whiteSpace=wrap;rounded=0;" parent="1" vertex="1">
          <mxGeometry x="910" y="705" width="60" height="30" as="geometry" />
        </mxCell>
      </root>
    </mxGraphModel>
  </diagram>
</mxfile>
